<?xml version="1.0" encoding="UTF-8"?>
<svg version="1.1" xmlns="http://www.w3.org/2000/svg" width="478" height="450">
<path d="M0 0 C157.41 0 314.82 0 477 0 C477 12.87 477 25.74 477 39 C319.59 39 162.18 39 0 39 C0 26.13 0 13.26 0 0 Z " fill="#000000" transform="translate(1,411)"/>
<path d="M0 0 C157.41 0 314.82 0 477 0 C477 12.87 477 25.74 477 39 C319.59 39 162.18 39 0 39 C0 26.13 0 13.26 0 0 Z " fill="#000000" transform="translate(1,212)"/>
<path d="M0 0 C157.41 0 314.82 0 477 0 C477 12.87 477 25.74 477 39 C319.59 39 162.18 39 0 39 C0 26.13 0 13.26 0 0 Z " fill="#000000" transform="translate(1,0)"/>
</svg>
